<svg width="42" height="26" viewBox="0 0 42 26" fill="none" xmlns="http://www.w3.org/2000/svg">
    <path d="M40.1691 6.845C39.8987 6.80916 39.6209 6.77434 39.3412 6.74129C39.2003 6.32612 39.012 5.9236 38.7797 5.54131C38.9509 5.34302 39.1196 5.14436 39.2826 4.94922C39.6446 4.51564 39.5922 3.90073 39.1609 3.51892L38.0803 2.56192C37.649 2.17987 36.9548 2.13355 36.4654 2.45426C36.2443 2.59915 36.0201 2.74852 35.7969 2.89959C35.3654 2.69385 34.911 2.5271 34.4421 2.40219C34.4047 2.15444 34.3655 1.90843 34.3251 1.66897C34.235 1.13579 33.7072 0.733643 33.0973 0.733643H31.569C30.9591 0.733643 30.4313 1.13579 30.3412 1.66891C30.3008 1.90825 30.2616 2.15431 30.2242 2.40213C29.7553 2.52704 29.3009 2.69379 28.8694 2.89953C28.6463 2.7484 28.422 2.59897 28.201 2.4542C27.7114 2.13349 27.0172 2.1798 26.586 2.56179L25.5055 3.51874C25.0742 3.90067 25.0218 4.51564 25.3839 4.94928C25.5468 5.14436 25.7155 5.34308 25.8866 5.54131C25.6544 5.92354 25.4661 6.32599 25.3251 6.74129C25.0454 6.7744 24.7676 6.80916 24.4972 6.845C23.8952 6.9248 23.4412 7.39229 23.4412 7.93255V9.28607C23.4412 9.82627 23.8951 10.2938 24.4971 10.3736C24.7675 10.4095 25.0453 10.4443 25.325 10.4773C25.466 10.8926 25.6543 11.295 25.8865 11.6773C25.7155 11.8754 25.5468 12.074 25.3836 12.2694C25.0217 12.7029 25.074 13.3179 25.5053 13.6996L26.5859 14.6568C27.0171 15.0388 27.7114 15.0851 28.2008 14.7644C28.4219 14.6196 28.6461 14.4702 28.8692 14.3192C29.3009 14.5249 29.7554 14.6916 30.2241 14.8165C30.2614 15.0642 30.3007 15.3102 30.3412 15.5498C30.4313 16.0829 30.9591 16.4851 31.569 16.4851H33.0973C33.7072 16.4851 34.235 16.0831 34.3251 15.5497C34.3655 15.3102 34.4047 15.0642 34.4421 14.8164C34.9109 14.6916 35.3653 14.5248 35.7969 14.319C36.02 14.4702 36.2443 14.6196 36.4653 14.7644C36.9547 15.0851 37.6491 15.0388 38.0803 14.6568L39.1609 13.6998C39.5922 13.3179 39.6445 12.7029 39.2824 12.2693C39.1193 12.074 38.9506 11.8753 38.7797 11.6774C39.0119 11.2951 39.2002 10.8927 39.3412 10.4774C39.6209 10.4443 39.8987 10.4095 40.169 10.3737C40.7711 10.2939 41.2251 9.82639 41.2251 9.28613V7.93261C41.2251 7.39235 40.7711 6.9248 40.1691 6.845ZM39.7367 9.09771C39.4912 9.12925 39.2407 9.15989 38.9893 9.18889C38.4921 9.24635 38.0851 9.55889 37.9526 9.98502C37.8257 10.393 37.6415 10.7868 37.4051 11.1553C37.1583 11.5399 37.1964 12.0159 37.5021 12.3681C37.6563 12.5457 37.8092 12.7243 37.958 12.9009L37.1785 13.5914C36.9785 13.4593 36.7768 13.3239 36.5768 13.1877C36.1793 12.9167 35.6417 12.8832 35.2074 13.1016C34.7913 13.311 34.3467 13.4742 33.8863 13.5866C33.405 13.7041 33.0521 14.0646 32.9874 14.5048C32.9547 14.7274 32.9201 14.9494 32.8845 15.1669H31.7818C31.7462 14.9494 31.7117 14.7275 31.6789 14.505C31.614 14.0646 31.2612 13.7041 30.78 13.5867C30.3194 13.4743 29.875 13.3111 29.4588 13.1017C29.0244 12.8832 28.4868 12.9168 28.0895 13.1877C27.8894 13.3239 27.6878 13.4593 27.4877 13.5914L26.7081 12.9009C26.8569 12.7242 27.0098 12.5456 27.1642 12.3679C27.4697 12.0158 27.5078 11.5398 27.261 11.1552C27.0247 10.7867 26.8405 10.3929 26.7135 9.98496C26.581 9.55871 26.174 9.24623 25.6769 9.18877C25.4255 9.15971 25.1749 9.12919 24.9293 9.09753V8.12103C25.1749 8.08948 25.4254 8.05885 25.6768 8.02984C26.174 7.97238 26.581 7.65984 26.7135 7.23371C26.8404 6.82575 27.0246 6.43201 27.2609 6.06346C27.5078 5.67881 27.4697 5.20273 27.1641 4.85065C27.0097 4.67288 26.8568 4.49427 26.7081 4.31784L27.4877 3.6273C27.6876 3.75947 27.8893 3.89486 28.0893 4.03103C28.4866 4.30197 29.0241 4.33576 29.4588 4.11712C29.8747 3.90781 30.3193 3.74464 30.7798 3.63214C31.2612 3.51468 31.6141 3.15419 31.6787 2.71395C31.7116 2.49132 31.7461 2.26941 31.7818 2.05193H32.8844C32.92 2.26935 32.9545 2.49126 32.9873 2.71377C33.0522 3.15419 33.405 3.51468 33.8862 3.63208C34.3468 3.74452 34.7914 3.90775 35.2075 4.11706C35.6419 4.3357 36.1794 4.30173 36.5767 4.03109C36.7768 3.89486 36.9784 3.75947 37.1785 3.6273L37.958 4.31784C37.8093 4.49433 37.6565 4.673 37.5021 4.85083C37.1964 5.20285 37.1584 5.67887 37.4051 6.06352C37.6414 6.43213 37.8256 6.82593 37.9526 7.23377C38.0851 7.66002 38.4921 7.97251 38.9892 8.02996C39.2406 8.05903 39.4912 8.0896 39.7367 8.12121V9.09771Z" fill="white"/>
    <path d="M32.6131 5.73364C30.8641 5.73364 29.4412 6.99393 29.4412 8.54308C29.4412 10.0923 30.8641 11.3526 32.6131 11.3526C34.3621 11.3526 35.785 10.0923 35.785 8.54308C35.785 6.99393 34.3621 5.73364 32.6131 5.73364ZM32.6131 10.1037C31.6416 10.1037 30.8511 9.40357 30.8511 8.54302C30.8511 7.68246 31.6416 6.98242 32.6131 6.98242C33.5846 6.98242 34.375 7.68253 34.3751 8.54302C34.3751 9.40357 33.5846 10.1037 32.6131 10.1037Z" fill="white"/>
    <path d="M22.9207 16.5967C22.5528 16.4008 22.1751 16.2039 21.7974 16.0109C21.8862 15.3407 21.8864 14.6627 21.7978 13.9937C22.1769 13.8 22.5544 13.6032 22.9206 13.4082C23.5372 13.08 23.7942 12.3876 23.5183 11.7975C23.5183 11.7975 23.5183 11.7975 23.5183 11.7974L22.7136 10.0768C22.4376 9.4868 21.7035 9.15797 21.0051 9.31207C20.5901 9.40355 20.1661 9.50085 19.7435 9.60124C19.2718 9.07254 18.7305 8.59319 18.1328 8.17512C18.2461 7.80082 18.356 7.42506 18.4594 7.05736C18.6334 6.43912 18.2622 5.7886 17.5961 5.54417L15.6535 4.83148C14.9874 4.58699 14.2054 4.81446 13.8348 5.36072C13.614 5.6861 13.3917 6.02062 13.1735 6.35568C12.4169 6.27703 11.6516 6.27685 10.896 6.35526C10.6771 6.01916 10.4549 5.68476 10.235 5.36072C9.86418 4.81458 9.08242 4.58705 8.41626 4.83148L6.47362 5.54417C5.80766 5.78854 5.43634 6.43912 5.61031 7.05736C5.71388 7.42579 5.82366 7.80142 5.9368 8.17475C5.33995 8.59247 4.79868 9.07206 4.32673 9.60142C3.90317 9.50073 3.47894 9.40349 3.06461 9.31207C2.36639 9.15785 1.63207 9.48692 1.35611 10.0768L0.551585 11.7974C0.275755 12.3874 0.532717 13.0799 1.14918 13.4081C1.51661 13.6036 1.8943 13.8005 2.27253 13.9939C2.1838 14.6639 2.1836 15.3417 2.27212 16.011C1.89355 16.2045 1.51607 16.4013 1.14905 16.5966C0.532581 16.9249 0.275618 17.6173 0.551516 18.2074L1.35624 19.928C1.63214 20.5179 2.36625 20.8468 3.06475 20.6927C3.47928 20.6013 3.90338 20.504 4.32618 20.4035C4.79793 20.9322 5.33927 21.4114 5.93693 21.8296C5.82346 22.2043 5.7136 22.5801 5.61031 22.9473C5.43634 23.5656 5.80753 24.2162 6.47362 24.4605L8.41633 25.1733C8.59679 25.2395 8.78567 25.2711 8.97257 25.2711C9.47583 25.2711 9.96473 25.0423 10.2352 24.6441C10.4543 24.3212 10.6766 23.9868 10.8965 23.6492C11.6529 23.7277 12.4185 23.7279 13.174 23.6496C13.3913 23.9833 13.6135 24.3176 13.835 24.6442C14.2057 25.1903 14.9874 25.4178 15.6537 25.1734L17.5964 24.4607C18.2623 24.2163 18.6337 23.5658 18.4597 22.9475C18.3569 22.5822 18.2471 22.2066 18.1332 21.8301C18.7299 21.4124 19.2712 20.9329 19.7433 20.4035C20.1657 20.5039 20.5899 20.6011 21.0052 20.6928C21.7033 20.847 22.4378 20.5181 22.7137 19.9281L23.5184 18.2074C23.7942 17.6173 23.5372 16.9249 22.9207 16.5967ZM21.2987 19.3274C20.8997 19.2389 20.493 19.1453 20.0885 19.0488C19.516 18.9124 18.9117 19.0907 18.5492 19.5033C18.1324 19.9774 17.6502 20.4046 17.1158 20.7732C16.6505 21.0942 16.4494 21.6292 16.6036 22.136C16.7132 22.4965 16.8188 22.8565 16.9181 23.2075L15.1324 23.8625C14.92 23.5486 14.7074 23.2279 14.4995 22.908C14.2037 22.453 13.6344 22.2009 13.0492 22.2651C12.3771 22.339 11.695 22.339 11.022 22.2648C10.4352 22.2003 9.86636 22.4524 9.57064 22.9074C9.36023 23.231 9.1475 23.5519 8.93743 23.8624L7.15175 23.2073C7.25162 22.8545 7.3573 22.4943 7.4664 22.1356C7.62055 21.6285 7.4191 21.0933 6.95323 20.7721C6.41798 20.403 5.9357 19.9759 5.51953 19.5027C5.15723 19.0904 4.5532 18.9124 3.98076 19.0489C3.57587 19.1455 3.16934 19.2391 2.77114 19.3275L2.0315 17.7459C2.38423 17.5586 2.74647 17.3702 3.10918 17.1853C3.6229 16.9233 3.90782 16.4192 3.83509 15.9008C3.75148 15.3055 3.75169 14.7013 3.83529 14.1053C3.9083 13.5864 3.62358 13.0817 3.10959 12.8197C2.74701 12.6348 2.38471 12.4463 2.03143 12.2587L2.77108 10.6772C3.16893 10.7655 3.57553 10.8591 3.98117 10.9558C4.55348 11.0924 5.15777 10.9139 5.52062 10.5013C5.93727 10.0272 6.41955 9.59997 6.95378 9.23148C7.41917 8.91052 7.62021 8.37547 7.46606 7.86845C7.35737 7.51098 7.25169 7.15097 7.15154 6.79713L8.93722 6.14207C9.14804 6.45365 9.36078 6.77443 9.57016 7.09659C9.86602 7.5516 10.4358 7.80433 11.0205 7.73948C11.6922 7.66543 12.3743 7.66543 13.0478 7.73978C13.634 7.80445 14.2034 7.55197 14.4991 7.09696C14.7078 6.77582 14.9206 6.45492 15.1323 6.14207L16.918 6.79713C16.818 7.1503 16.7123 7.51049 16.6033 7.86899C16.4492 8.37601 16.6506 8.91125 17.1165 9.23245C17.6517 9.60148 18.134 10.0286 18.5502 10.5018C18.9125 10.914 19.5163 11.092 20.089 10.9555C20.4936 10.859 20.9001 10.7654 21.2986 10.677L22.0382 12.2585C21.6859 12.4455 21.3237 12.6339 20.9605 12.8192C20.4467 13.0812 20.1618 13.5853 20.2346 14.1037C20.3182 14.6987 20.318 15.3029 20.2342 15.8994C20.1613 16.4183 20.4462 16.9229 20.96 17.1849C21.322 17.3695 21.6843 17.5579 22.0382 17.7457L21.2987 19.3274Z" fill="white"/>
    <path d="M15.4687 13.8937C15.4687 13.8937 15.4687 13.8937 15.4687 13.8937C14.698 12.1112 12.5572 11.2617 10.6961 12C8.83533 12.7384 7.94844 14.7892 8.71926 16.5717C9.0926 17.4353 9.79475 18.1077 10.6961 18.4654C11.1468 18.6442 11.6204 18.7336 12.094 18.7336C12.5675 18.7336 13.0411 18.6442 13.4919 18.4654C15.3526 17.7271 16.2395 15.6762 15.4687 13.8937ZM13.0817 17.5169C12.4448 17.7696 11.7433 17.7695 11.1063 17.5169C10.4694 17.2642 9.97336 16.7889 9.7095 16.1788C9.1648 14.9194 9.79148 13.4702 11.1063 12.9486C11.4283 12.8208 11.7621 12.7603 12.0906 12.7603C13.1039 12.7603 14.0672 13.3355 14.4786 14.2866C15.0232 15.5461 14.3965 16.9952 13.0817 17.5169Z" fill="white"/>
</svg>