<svg width="77" height="23" viewBox="0 0 77 23" fill="none" xmlns="http://www.w3.org/2000/svg">
<path d="M57.1211 14.0801H61.1641V15H55.9902V6.46875H57.1211V14.0801ZM67.2754 12.7734H63.7012L62.8984 15H61.7383L64.9961 6.46875H65.9805L69.2441 15H68.0898L67.2754 12.7734ZM64.041 11.8477H66.9414L65.4883 7.85742L64.041 11.8477ZM70.3926 15V6.46875H73.1816C74.1074 6.46875 74.8027 6.66016 75.2676 7.04297C75.7363 7.42578 75.9707 7.99219 75.9707 8.74219C75.9707 9.14062 75.8574 9.49414 75.6309 9.80273C75.4043 10.1074 75.0957 10.3438 74.7051 10.5117C75.166 10.6406 75.5293 10.8867 75.7949 11.25C76.0645 11.6094 76.1992 12.0391 76.1992 12.5391C76.1992 13.3047 75.9512 13.9062 75.4551 14.3438C74.959 14.7812 74.2578 15 73.3516 15H70.3926ZM71.5176 11.0098V14.0801H73.375C73.8984 14.0801 74.3105 13.9453 74.6113 13.6758C74.916 13.4023 75.0684 13.0273 75.0684 12.5508C75.0684 11.5234 74.5098 11.0098 73.3926 11.0098H71.5176ZM71.5176 10.1074H73.2168C73.709 10.1074 74.1016 9.98438 74.3945 9.73828C74.6914 9.49219 74.8398 9.1582 74.8398 8.73633C74.8398 8.26758 74.7031 7.92773 74.4297 7.7168C74.1562 7.50195 73.7402 7.39453 73.1816 7.39453H71.5176V10.1074Z" fill="black"/>
<path d="M33.7012 12.1055V15H31.6445V6.46875H35.0488C35.7012 6.46875 36.2773 6.58984 36.7773 6.83203C37.2812 7.07031 37.6699 7.41211 37.9434 7.85742C38.2207 8.29883 38.3594 8.80078 38.3594 9.36328C38.3594 10.1953 38.0605 10.8613 37.4629 11.3613C36.8691 11.8574 36.0527 12.1055 35.0137 12.1055H33.7012ZM33.7012 10.5176H35.0488C35.4473 10.5176 35.75 10.418 35.957 10.2188C36.168 10.0195 36.2734 9.73828 36.2734 9.375C36.2734 8.97656 36.166 8.6582 35.9512 8.41992C35.7363 8.18164 35.4434 8.06055 35.0723 8.05664H33.7012V10.5176ZM46.6855 10.9102C46.6855 11.7422 46.5312 12.4785 46.2227 13.1191C45.9141 13.7598 45.4746 14.2539 44.9043 14.6016C44.3379 14.9453 43.6914 15.1172 42.9648 15.1172C42.2383 15.1172 41.5938 14.9512 41.0312 14.6191C40.4688 14.2832 40.0293 13.8047 39.7129 13.1836C39.4004 12.5625 39.2363 11.8496 39.2207 11.0449V10.5645C39.2207 9.72852 39.373 8.99219 39.6777 8.35547C39.9863 7.71484 40.4258 7.2207 40.9961 6.87305C41.5703 6.52539 42.2227 6.35156 42.9531 6.35156C43.6758 6.35156 44.3203 6.52344 44.8867 6.86719C45.4531 7.21094 45.8926 7.70117 46.2051 8.33789C46.5215 8.9707 46.6816 9.69727 46.6855 10.5176V10.9102ZM44.5938 10.5527C44.5938 9.70508 44.4512 9.0625 44.166 8.625C43.8848 8.18359 43.4805 7.96289 42.9531 7.96289C41.9219 7.96289 41.377 8.73633 41.3184 10.2832L41.3125 10.9102C41.3125 11.7461 41.4512 12.3887 41.7285 12.8379C42.0059 13.2871 42.418 13.5117 42.9648 13.5117C43.4844 13.5117 43.8848 13.291 44.166 12.8496C44.4473 12.4082 44.5898 11.7734 44.5938 10.9453V10.5527ZM52.4629 13.4062H49.6445L49.1523 15H46.9551L50.084 6.46875H52.0176L55.1699 15H52.9609L52.4629 13.4062ZM50.1367 11.8184H51.9707L51.0508 8.85938L50.1367 11.8184Z" fill="black"/>
<g filter="url(#filter0_i)">
<path d="M12.3152 8.73584C12.9995 8.66718 13.6072 8.50259 14.1572 8.23698C14.8973 7.87949 15.3879 7.42794 15.6641 6.85004C15.809 6.54671 15.836 6.42243 15.8377 6.04995C15.8388 5.79863 15.832 5.70721 15.8042 5.59866C15.7701 5.46544 15.7701 5.46182 15.8042 5.42826C15.8614 5.37204 17.4756 4.44628 17.5165 4.44628C17.5372 4.44628 18.1544 4.79251 18.888 5.21567C19.6216 5.63884 20.2321 5.98507 20.2446 5.98507C20.2823 5.98507 21.2454 5.42348 21.2454 5.40147C21.2454 5.37042 20.9134 4.87887 20.7078 4.60536C20.1615 3.87894 19.4913 3.17574 18.8209 2.62552C17.484 1.52829 15.943 0.747541 14.3098 0.339914C13.2778 0.0823363 12.3676 -0.0185358 11.2674 0.00276222C10.161 0.0241762 9.26931 0.160897 8.21044 0.471459C6.07349 1.09822 4.05103 2.44167 2.63079 4.17783C2.2876 4.59737 1.75299 5.34482 1.75299 5.40512C1.75299 5.41528 1.88027 5.49709 2.03583 5.58689C2.19139 5.6767 2.41015 5.80366 2.52197 5.86903C2.64511 5.94101 2.74019 5.98498 2.76308 5.98052C2.79654 5.97399 3.75417 5.42412 7.7528 3.11539C8.34443 2.77379 9.37098 2.18122 10.034 1.79856C10.6971 1.41591 11.2961 1.07005 11.3651 1.03001C11.4342 0.989957 11.503 0.961908 11.5181 0.96768C11.5331 0.973445 12.1151 1.30681 12.8113 1.70849C13.5075 2.11016 14.1752 2.49491 14.2951 2.56347C14.4149 2.63203 14.513 2.69892 14.513 2.71213C14.513 2.73092 13.6183 3.25356 13.2665 3.44022L13.1978 3.47671L12.9883 3.4333C12.5399 3.34037 12.3705 3.3257 11.7496 3.32605C11.2465 3.32627 11.1306 3.33184 10.9147 3.36569C10.2233 3.47418 9.65288 3.65892 9.15011 3.93717C8.78934 4.13684 8.57462 4.30125 8.29992 4.58815C7.27652 5.65699 7.52146 7.07015 8.88592 7.96912C9.33181 8.26288 9.89604 8.495 10.4606 8.6169C10.9243 8.71702 11.0815 8.7327 11.6754 8.73813C11.9865 8.74097 12.2744 8.73985 12.3152 8.73584Z" fill="#333333"/>
<path d="M12.139 22.9735C14.0945 22.8365 15.7044 22.3511 17.3135 21.4133C18.3149 20.8297 19.1653 20.1362 20.0545 19.1782C20.6544 18.5319 21.3474 17.5241 21.7452 16.7195C21.8082 16.592 21.8753 16.4585 21.8942 16.4228C21.9699 16.2798 22.1947 15.7429 22.2986 15.4566C22.7136 14.3137 22.9227 13.2578 22.9901 11.9641C23.0156 11.4745 22.9903 10.7229 22.9332 10.2677C22.9236 10.1912 22.9065 10.0536 22.8952 9.9618C22.806 9.23495 22.559 8.25401 22.2681 7.47119C21.9012 6.67756 21.9249 5.94396 21.1568 6.38945L20.6797 6.6668L20.6704 11.7346L20.6612 16.8025L20.5128 16.8876C19.9255 17.2244 18.8489 17.8455 18.788 17.8827C18.6556 17.9634 17.9732 18.3546 17.9288 18.3752C17.8953 18.3908 17.8821 18.3893 17.8689 18.3684C17.8592 18.3531 17.8518 17.9022 17.8516 17.3159L17.8514 16.2902L18.0074 16.0826C18.6225 15.264 19.0059 14.3556 19.1432 13.3916C19.2718 12.2396 18.9798 10.9996 17.9729 10.5161C17.4798 10.2826 16.9152 10.2706 16.2842 10.4801C15.226 10.8316 14.1885 11.8094 13.5591 13.0486C12.9613 14.2256 12.7949 15.4963 13.1117 16.4644C13.1712 16.6462 13.3253 16.9544 13.4304 17.1017C13.5996 17.3389 13.8482 17.5527 14.1186 17.6937L14.2627 17.7688V19.1299V20.4911L13.9937 20.647C13.8458 20.7328 13.6288 20.859 13.5115 20.9276C13.3391 21.0284 12.3096 21.6213 11.9768 21.8114L11.898 21.8565V22.4099C11.898 23.0147 11.8933 22.99 12.0062 22.9826C12.0334 22.9808 12.0932 22.9767 12.1391 22.9735H12.139Z" fill="#333333"/>
<path d="M11.0914 22.9827C11.0967 22.9689 11.0988 22.7035 11.0961 22.393L11.0912 21.8285L10.8686 21.6997C10.7462 21.629 10.5417 21.5109 10.4142 21.4375C9.79538 21.0811 3.542 17.4723 3.28307 17.3221C3.11986 17.2275 2.84862 17.0707 2.68031 16.9737L2.37429 16.7974L2.36956 15.0677C2.36696 14.1164 2.37108 13.3317 2.37889 13.324C2.39198 13.3109 3.80285 14.1148 3.87001 14.1736C3.88682 14.1883 3.91003 14.238 3.92162 14.284C3.99253 14.5655 4.31751 15.2627 4.55264 15.6377C4.97263 16.3075 5.55487 16.9182 6.14226 17.3049C7.05471 17.9056 8.02427 18.0496 8.75308 17.6929C9.79467 17.183 10.2013 15.796 9.78259 14.1815C9.39103 12.6719 8.32288 11.2712 7.08512 10.6442C6.81247 10.5061 6.57714 10.4181 6.29688 10.3494C6.10231 10.3018 6.05431 10.2972 5.74976 10.2978C5.44993 10.2985 5.39759 10.3034 5.23592 10.3467C4.90374 10.4357 4.6307 10.5888 4.38887 10.8217C4.32409 10.8841 4.26276 10.9351 4.25258 10.9351C4.24239 10.9351 3.9575 10.778 3.61947 10.5859C3.28145 10.3939 2.86091 10.1554 2.68495 10.0561L2.36502 9.87539V8.28379C2.36502 6.95533 2.36079 6.68797 2.33943 6.66661C2.30761 6.63481 1.37338 6.09628 1.35002 6.09628C1.33042 6.09628 0.995712 6.77647 0.880206 7.05107C0.425566 8.13189 0.145154 9.25542 0.0241795 10.4809C-0.00846316 10.8116 -0.00788168 12.1744 0.0250485 12.5202C0.134637 13.6712 0.393601 14.7516 0.808269 15.7877C0.966056 16.182 1.33889 16.9439 1.55003 17.3034C2.43526 18.8109 3.68547 20.1323 5.13772 21.0953C6.74785 22.163 8.58752 22.8039 10.5069 22.966C10.9862 23.0065 11.0812 23.0092 11.0914 22.9827L11.0914 22.9827Z" fill="#333333"/>
</g>
<defs>
<filter id="filter0_i" x="3.05176e-05" y="0" width="23" height="27" filterUnits="userSpaceOnUse" color-interpolation-filters="sRGB">
<feFlood flood-opacity="0" result="BackgroundImageFix"/>
<feBlend mode="normal" in="SourceGraphic" in2="BackgroundImageFix" result="shape"/>
<feColorMatrix in="SourceAlpha" type="matrix" values="0 0 0 0 0 0 0 0 0 0 0 0 0 0 0 0 0 0 127 0" result="hardAlpha"/>
<feOffset dy="4"/>
<feGaussianBlur stdDeviation="2"/>
<feComposite in2="hardAlpha" operator="arithmetic" k2="-1" k3="1"/>
<feColorMatrix type="matrix" values="0 0 0 0 0 0 0 0 0 0 0 0 0 0 0 0 0 0 0.25 0"/>
<feBlend mode="normal" in2="shape" result="effect1_innerShadow"/>
</filter>
</defs>
</svg>
