<svg width="22" height="26" viewBox="0 0 22 26" fill="none" xmlns="http://www.w3.org/2000/svg">
<path d="M17.69 2.44113L18.5492 3.24916L17.69 4.0572L16.8321 3.24972L17.69 2.44113ZM10.2143 0H11.4286V1.14286H10.2143V0ZM3.95283 2.44113L4.81077 3.24972L3.95283 4.0572L3.0937 3.24861L3.95283 2.44113ZM1.71429 10.2857H0.5V9.14286H1.71429V10.2857ZM3.95283 16.9874L3.0937 16.1794L3.95283 15.3714L4.81077 16.1789L3.95283 16.9874ZM14.4643 21.7143C14.4643 23.6077 12.8332 25.1429 10.8214 25.1429C8.80968 25.1429 7.17857 23.6077 7.17857 21.7143V18.8571H14.4643V21.7143ZM17.69 16.9874L16.8321 16.1789L17.69 15.3714L18.5492 16.18L17.69 16.9874ZM14.4643 16.2977V17.7143H7.17857V16.2977C3.95224 14.7179 2.2906 11.2679 3.15447 7.9428C4.01864 4.61802 7.1845 2.27902 10.8214 2.27902C14.4584 2.27902 17.6242 4.61802 18.4884 7.9428C19.3523 11.2679 17.6906 14.7179 14.4643 16.2977ZM21.1429 10.2857H19.9286V9.14286H21.1429V10.2857Z" fill="white"/>
</svg>
