<svg width="23" height="24" viewBox="0 0 23 24" fill="none" xmlns="http://www.w3.org/2000/svg">
<path d="M22.8507 5.29971C22.8507 2.48736 21.3636 0.224987 19.526 0.224987C17.037 0.0624964 14.4986 0 11.9062 0H11.0975C8.50966 0 5.96673 0.0624964 3.47771 0.224987C1.64465 0.224987 0.157529 2.49986 0.157529 5.3122C0.0452086 7.53708 -0.00421233 9.76196 0.000280476 11.9868C-0.00421233 14.2117 0.0452086 16.4366 0.153036 18.6677C0.153036 21.4801 1.64016 23.7612 3.47322 23.7612C6.08803 23.9299 8.77024 24.0049 11.4974 23.9987C14.229 24.0112 16.9022 23.9362 19.5215 23.7612C21.3591 23.7612 22.8462 21.4801 22.8462 18.6677C22.954 16.4366 23.0035 14.2117 22.999 11.9806C23.0079 9.75571 22.9585 7.53083 22.8507 5.29971ZM9.30039 18.1177V5.83717L15.815 11.9743L9.30039 18.1177Z" fill="white"/>
</svg>


