<svg width="14" height="21" viewBox="0 0 14 21" fill="none" xmlns="http://www.w3.org/2000/svg">
<path d="M13.1071 1.15779C11.2331 0.400353 9.11681 4.06275e-05 7.00044 3.09166e-09C4.88374 -4.06213e-05 2.76693 0.400272 0.892103 1.1582C0.341792 1.38082 0 1.81753 0 2.29739V9.9665C0 10.206 0.26091 10.3998 0.583343 10.3998H1.16668V12.1332C0.844252 12.1332 0.583343 12.327 0.583343 12.5665V14.2998C0.583343 14.5393 0.844252 14.7331 1.16668 14.7331V20.3664C1.16668 20.6059 1.4276 20.7997 1.75003 20.7997C2.07246 20.7997 2.33337 20.6059 2.33337 20.3664V14.7331C2.6558 14.7331 2.91671 14.5393 2.91671 14.2998V12.5665C2.91671 12.3269 2.6558 12.1331 2.33337 12.1331V10.3998H6.41666V12.1332C6.09423 12.1332 5.83332 12.327 5.83332 12.5665V14.2998C5.83332 14.5393 6.09423 14.7331 6.41666 14.7331V20.3664C6.41666 20.6059 6.67757 20.7997 7 20.7997C7.32243 20.7997 7.58334 20.6059 7.58334 20.3664V14.7331C7.90578 14.7331 8.16669 14.5393 8.16669 14.2998V12.5665C8.16669 12.3269 7.90578 12.1331 7.58334 12.1331V10.3998H11.6666V12.1332C11.3442 12.1332 11.0833 12.327 11.0833 12.5665V14.2998C11.0833 14.5393 11.3442 14.7331 11.6666 14.7331V20.3664C11.6666 20.6059 11.9275 20.7997 12.25 20.7997C12.5724 20.7997 12.8333 20.6059 12.8333 20.3664V14.7331C13.1557 14.7331 13.4167 14.5393 13.4167 14.2998V12.5665C13.4167 12.3269 13.1557 12.1331 12.8333 12.1331V10.3998H13.4167C13.7391 10.3998 14 10.206 14 9.9665V2.29739C13.9998 1.81753 13.658 1.38082 13.1071 1.15779ZM12.8332 3.4666H1.16663V2.29739C1.16663 2.13741 1.2777 1.98889 1.44974 1.9195C4.85853 0.541645 9.14175 0.542092 12.5494 1.9191C12.722 1.98893 12.8332 2.13745 12.8332 2.29743V3.4666Z" fill="white"/>
</svg>
