<svg width="23" height="24" viewBox="0 0 23 24" fill="none" xmlns="http://www.w3.org/2000/svg">
<path d="M21.7302 0H1.26979C0.56901 0 0 0.59375 0 1.325V22.675C0 23.4062 0.56901 24 1.26979 24H11.5V14.5H8.75078V11H11.5V8.4125C11.5 5.3125 13.5604 3.625 16.2138 3.625C17.4836 3.625 18.8492 3.725 19.1667 3.76875V7.00625H17.0523C15.6089 7.00625 15.3333 7.71875 15.3333 8.76875V11H18.7714L18.3221 14.5H15.3333V24H21.7302C22.431 24 23 23.4062 23 22.675V1.325C23 0.59375 22.431 0 21.7302 0Z" fill="white"/>
</svg>


